# Max2Obj Version 4.0 Mar 10th, 2001
#
mtllib ./helmet_yellow.mtl
g
# object Helmet to come ...
#
v  0.000000 3.427328 0.000000
v  -0.000000 3.275087 -0.765367
v  -0.292893 3.275087 -0.707107
v  -0.541196 3.275087 -0.541196
v  -0.707107 3.275087 -0.292893
v  -0.765367 3.275087 -0.000000
v  -0.707107 3.275087 0.292893
v  -0.541196 3.275087 0.541196
v  -0.292893 3.275087 0.707107
v  0.000000 3.275087 0.765367
v  0.292893 3.275087 0.707107
v  0.541196 3.275087 0.541196
v  0.707107 3.275087 0.292893
v  0.765367 3.275087 -0.000000
v  0.707107 3.275087 -0.292894
v  0.541196 3.275087 -0.541197
v  0.292892 3.275087 -0.707107
v  -0.000000 2.841542 -1.414213
v  -0.541196 2.841542 -1.306563
v  -1.000000 2.841542 -1.000000
v  -1.306563 2.841542 -0.541196
v  -1.414214 2.841542 -0.000000
v  -1.306563 2.841542 0.541196
v  -1.000000 2.841542 1.000000
v  -0.541196 2.841542 1.306563
v  0.000000 2.841542 1.414214
v  0.541196 2.841542 1.306563
v  1.000000 2.841542 1.000000
v  1.306563 2.841542 0.541196
v  1.414214 2.841542 -0.000001
v  1.306563 2.841542 -0.541197
v  0.999999 2.841542 -1.000001
v  0.541195 2.841542 -1.306563
v  -0.000000 2.192695 -1.847759
v  -0.707107 2.192695 -1.707107
v  -1.306563 2.192695 -1.306563
v  -1.707107 2.192695 -0.707107
v  -1.847759 2.192695 -0.000000
v  -1.707107 2.192695 0.707106
v  -1.306563 2.192695 1.306563
v  -0.707107 2.192695 1.707107
v  0.000000 2.192695 1.847759
v  0.707107 2.192695 1.707107
v  1.306563 2.192695 1.306563
v  1.707107 2.192695 0.707106
v  1.847759 2.192695 -0.000001
v  1.707106 2.192695 -0.707108
v  1.306562 2.192695 -1.306564
v  0.707105 2.192695 -1.707107
v  -0.000000 1.227328 -2.000000
v  -0.765367 1.227328 -1.847759
v  -1.414214 1.327329 -1.414213
v  -1.847759 1.427328 -0.765367
v  -2.000000 1.427328 -0.000000
v  -1.847759 1.427328 0.765366
v  -1.414214 1.427328 1.414213
v  -0.765367 1.427328 1.847759
v  0.000000 1.427328 2.000000
v  0.765367 1.427328 1.847759
v  1.414214 1.427328 1.414213
v  1.847759 1.427328 0.765366
v  2.000000 1.427328 -0.000001
v  1.847758 1.427328 -0.765368
v  1.414212 1.327329 -1.414215
v  0.765365 1.227328 -1.847760
v  -0.000000 0.661961 -1.847759
v  -0.707107 0.661961 -1.707107
v  -1.306563 0.661961 -1.306563
v  -1.707107 0.661961 -0.707107
v  -1.847759 0.661961 -0.000000
v  -1.707107 0.661961 0.707106
v  -1.306563 0.661961 1.306563
v  -0.707107 0.661961 1.707107
v  0.000000 0.661961 1.847759
v  0.707107 0.661961 1.707107
v  1.306563 0.661961 1.306563
v  1.707107 0.661961 0.707106
v  1.847759 0.661961 -0.000001
v  1.707106 0.661961 -0.707108
v  1.306562 0.661961 -1.306564
v  0.707105 0.661961 -1.707107
v  -0.000000 0.013115 -1.414213
v  -0.541196 0.013115 -1.306563
v  -1.000000 0.013115 -1.000000
v  -1.306563 0.013115 -0.541196
v  -1.414214 0.013115 -0.000000
v  -1.306563 0.013115 0.541196
v  -1.000000 0.013115 1.000000
v  -0.541196 0.013115 1.306563
v  0.000000 0.013115 1.414214
v  0.541196 0.013115 1.306563
v  1.000000 0.013115 1.000000
v  1.306563 0.013115 0.541196
v  1.414214 0.013115 -0.000001
v  1.306563 0.013115 -0.541197
v  0.999999 0.013115 -1.000001
v  0.541195 0.013115 -1.306563
v  -0.000000 0.013115 -1.414213
v  -0.541196 0.013115 -1.306563
v  -1.000000 0.013115 -1.000000
v  -1.306563 0.013115 -0.541196
v  -1.414214 0.013115 -0.000000
v  -1.306563 0.013115 0.541196
v  -1.000000 0.013115 1.000000
v  -0.541196 0.013115 1.306563
v  0.000000 0.013115 1.414214
v  0.541196 0.013115 1.306563
v  1.000000 0.013115 1.000000
v  1.306563 0.013115 0.541196
v  1.414214 0.013115 -0.000001
v  1.306563 0.013115 -0.541197
v  0.999999 0.013115 -1.000001
v  0.541195 0.013115 -1.306563
v  1.850656 1.810012 -0.368120
v  -1.850656 1.810012 -0.368119
# 115 vertices

vt  0.000000 1.000000 0.000000
vt  0.062500 1.000000 0.000000
vt  0.125000 1.000000 0.000000
vt  0.187500 1.000000 0.000000
vt  0.250000 1.000000 0.000000
vt  0.312500 1.000000 0.000000
vt  0.375000 1.000000 0.000000
vt  0.437500 1.000000 0.000000
vt  0.500000 1.000000 0.000000
vt  0.562500 1.000000 0.000000
vt  0.625000 1.000000 0.000000
vt  0.687500 1.000000 0.000000
vt  0.750000 1.000000 0.000000
vt  0.812500 1.000000 0.000000
vt  0.875000 1.000000 0.000000
vt  0.937500 1.000000 0.000000
vt  0.000000 0.875000 0.000000
vt  0.062500 0.875000 0.000000
vt  0.125000 0.875000 0.000000
vt  0.187500 0.875000 0.000000
vt  0.250000 0.875000 0.000000
vt  0.312500 0.875000 0.000000
vt  0.375000 0.875000 0.000000
vt  0.437500 0.875000 0.000000
vt  0.500000 0.875000 0.000000
vt  0.562500 0.875000 0.000000
vt  0.625000 0.875000 0.000000
vt  0.687500 0.875000 0.000000
vt  0.750000 0.875000 0.000000
vt  0.812500 0.875000 0.000000
vt  0.875000 0.875000 0.000000
vt  0.937500 0.875000 0.000000
vt  1.000000 0.875000 0.000000
vt  0.000000 0.750000 0.000000
vt  0.062500 0.750000 0.000000
vt  0.125000 0.750000 0.000000
vt  0.187500 0.750000 0.000000
vt  0.250000 0.750000 0.000000
vt  0.312500 0.750000 0.000000
vt  0.375000 0.750000 0.000000
vt  0.437500 0.750000 0.000000
vt  0.500000 0.750000 0.000000
vt  0.562500 0.750000 0.000000
vt  0.625000 0.750000 0.000000
vt  0.687500 0.750000 0.000000
vt  0.750000 0.750000 0.000000
vt  0.812500 0.750000 0.000000
vt  0.875000 0.750000 0.000000
vt  0.937500 0.750000 0.000000
vt  1.000000 0.750000 0.000000
vt  0.000000 0.625000 0.000000
vt  0.062500 0.625000 0.000000
vt  0.125000 0.625000 0.000000
vt  0.187500 0.625000 0.000000
vt  0.250000 0.625000 0.000000
vt  0.312500 0.625000 0.000000
vt  0.375000 0.625000 0.000000
vt  0.437500 0.625000 0.000000
vt  0.500000 0.625000 0.000000
vt  0.562500 0.625000 0.000000
vt  0.625000 0.625000 0.000000
vt  0.687500 0.625000 0.000000
vt  0.750000 0.625000 0.000000
vt  0.812500 0.625000 0.000000
vt  0.875000 0.625000 0.000000
vt  0.937500 0.625000 0.000000
vt  1.000000 0.625000 0.000000
vt  0.000000 0.500000 0.000000
vt  0.062500 0.500000 0.000000
vt  0.125000 0.500000 0.000000
vt  0.187500 0.500000 0.000000
vt  0.250000 0.500000 0.000000
vt  0.312500 0.500000 0.000000
vt  0.375000 0.500000 0.000000
vt  0.437500 0.500000 0.000000
vt  0.500000 0.500000 0.000000
vt  0.562500 0.500000 0.000000
vt  0.625000 0.500000 0.000000
vt  0.687500 0.500000 0.000000
vt  0.750000 0.500000 0.000000
vt  0.812500 0.500000 0.000000
vt  0.875000 0.500000 0.000000
vt  0.937500 0.500000 0.000000
vt  1.000000 0.500000 0.000000
vt  0.000000 0.375000 0.000000
vt  0.062500 0.375000 0.000000
vt  0.125000 0.375000 0.000000
vt  0.187500 0.375000 0.000000
vt  0.250000 0.375000 0.000000
vt  0.312500 0.375000 0.000000
vt  0.375000 0.375000 0.000000
vt  0.437500 0.375000 0.000000
vt  0.500000 0.375000 0.000000
vt  0.562500 0.375000 0.000000
vt  0.625000 0.375000 0.000000
vt  0.687500 0.375000 0.000000
vt  0.750000 0.375000 0.000000
vt  0.812500 0.375000 0.000000
vt  0.875000 0.375000 0.000000
vt  0.937500 0.375000 0.000000
vt  1.000000 0.375000 0.000000
vt  0.000000 0.250000 0.000000
vt  0.062500 0.250000 0.000000
vt  0.125000 0.250000 0.000000
vt  0.187500 0.250000 0.000000
vt  0.250000 0.250000 0.000000
vt  0.312500 0.250000 0.000000
vt  0.375000 0.250000 0.000000
vt  0.437500 0.250000 0.000000
vt  0.500000 0.250000 0.000000
vt  0.562500 0.250000 0.000000
vt  0.625000 0.250000 0.000000
vt  0.687500 0.250000 0.000000
vt  0.750000 0.250000 0.000000
vt  0.812500 0.250000 0.000000
vt  0.875000 0.250000 0.000000
vt  0.937500 0.250000 0.000000
vt  1.000000 0.250000 0.000000
vt  0.000000 0.125000 0.000000
vt  0.062500 0.125000 0.000000
vt  0.125000 0.125000 0.000000
vt  0.187500 0.125000 0.000000
vt  0.250000 0.125000 0.000000
vt  0.312500 0.125000 0.000000
vt  0.375000 0.125000 0.000000
vt  0.437500 0.125000 0.000000
vt  0.500000 0.125000 0.000000
vt  0.562500 0.125000 0.000000
vt  0.625000 0.125000 0.000000
vt  0.687500 0.125000 0.000000
vt  0.750000 0.125000 0.000000
vt  0.812500 0.125000 0.000000
vt  0.875000 0.125000 0.000000
vt  0.937500 0.125000 0.000000
vt  1.000000 0.125000 0.000000
vt  0.780061 0.562500 0.000000
vt  0.217561 0.562500 0.000000
# 137 texture vertices

vn  -0.000000 1.000000 -0.000000
vn  -0.022464 0.907920 -0.418540
vn  -0.180922 0.907920 -0.378084
vn  -0.311837 0.907920 -0.280068
vn  -0.395277 0.907920 -0.139414
vn  -0.418540 0.907920 0.022464
vn  -0.378084 0.907921 0.180922
vn  -0.280068 0.907920 0.311837
vn  -0.139414 0.907920 0.395277
vn  0.022464 0.907920 0.418540
vn  0.180922 0.907920 0.378084
vn  0.311837 0.907920 0.280068
vn  0.395277 0.907920 0.139414
vn  0.418540 0.907920 -0.022464
vn  0.378084 0.907920 -0.180923
vn  0.280068 0.907920 -0.311837
vn  0.139414 0.907920 -0.395277
vn  -0.053333 3.027440 -2.476952
vn  -0.695656 3.027440 -2.392883
vn  -1.558419 3.027440 -1.944519
vn  -2.183927 3.027440 -1.200121
vn  -2.476951 3.027440 -0.273015
vn  -2.392883 3.027440 0.695655
vn  -1.944520 3.027440 1.558419
vn  -1.200121 3.027440 2.183927
vn  -0.273014 3.027440 2.476952
vn  0.695656 3.027440 2.392883
vn  1.558420 3.027440 1.944519
vn  2.183927 3.027440 1.200119
vn  2.476952 3.027440 0.273013
vn  2.392882 3.027440 -0.695658
vn  1.944518 3.027440 -1.558421
vn  1.200118 3.027440 -2.183928
vn  -0.029626 1.797228 -3.430237
vn  -0.983821 1.797228 -3.305350
vn  -2.172273 1.814406 -2.674917
vn  -3.027287 1.835853 -1.637818
vn  -3.423615 1.835853 0.028307
vn  -3.298728 1.835853 0.982503
vn  -2.671639 1.835853 2.170083
vn  -1.637818 1.835853 3.027287
vn  -0.354653 1.835853 3.423615
vn  0.982504 1.835853 3.298728
vn  2.170084 1.835853 2.671638
vn  3.027288 1.835853 1.637816
vn  3.423615 1.835853 0.354651
vn  3.155451 1.814406 -1.338506
vn  2.674915 1.814406 -2.172276
vn  1.641566 1.797227 -3.032903
vn  0.004174 0.203216 -3.856050
vn  -1.106757 0.203777 -3.719177
vn  -2.452097 0.274095 -3.012294
vn  -2.452371 0.169859 -1.635290
vn  -1.000000 -0.000000 -0.000000
vn  -0.923880 -0.000000 0.382683
vn  -0.707107 -0.000000 0.707107
vn  -0.382684 -0.000000 0.923880
vn  0.000000 0.000000 1.000000
vn  0.382684 -0.000000 0.923880
vn  0.707107 -0.000000 0.707107
vn  0.923880 -0.000000 0.382683
vn  0.999193 0.028393 -0.028394
vn  1.765062 -0.000970 -0.757007
vn  2.977866 0.312121 -2.463161
vn  1.835346 0.221363 -3.408058
vn  0.004367 -0.413613 -0.910442
vn  -0.344377 -0.413614 -0.842810
vn  -0.647760 -0.401934 -0.647191
vn  -0.851541 -0.387405 -0.353264
vn  -0.923671 -0.383155 -0.004888
vn  -0.855232 -0.383155 0.348957
vn  -0.656591 -0.383155 0.649677
vn  -0.357990 -0.383155 0.851490
vn  -0.004888 -0.383155 0.923671
vn  0.348958 -0.383155 0.855231
vn  0.649678 -0.383155 0.656590
vn  0.851490 -0.383155 0.357989
vn  0.923671 -0.383155 0.004888
vn  0.855231 -0.383155 -0.348958
vn  0.657249 -0.392058 -0.643673
vn  0.358741 -0.408007 -0.839545
vn  0.055046 -0.554728 -0.830209
vn  -0.266851 -0.554728 -0.788078
vn  -0.548123 -0.554728 -0.625970
vn  -0.745948 -0.554728 -0.368563
vn  -0.830209 -0.554728 -0.055046
vn  -0.788078 -0.554728 0.266851
vn  -0.625970 -0.554728 0.548123
vn  -0.368563 -0.554728 0.745948
vn  -0.055046 -0.554728 0.830209
vn  0.266851 -0.554728 0.788078
vn  0.548123 -0.554728 0.625970
vn  0.745948 -0.554728 0.368563
vn  0.830209 -0.554728 0.055046
vn  0.788078 -0.554728 -0.266852
vn  0.625969 -0.554728 -0.548123
vn  0.368563 -0.554728 -0.745948
vn  1.000000 0.000000 -0.000000
vn  1.000000 0.000000 -0.000000
vn  1.000000 0.000000 -0.000000
vn  1.000000 0.000000 -0.000000
vn  1.000000 0.000000 -0.000000
vn  1.000000 0.000000 -0.000000
vn  1.000000 0.000000 -0.000000
vn  1.000000 0.000000 -0.000000
vn  1.000000 0.000000 -0.000000
vn  1.000000 0.000000 -0.000000
vn  1.000000 0.000000 -0.000000
vn  1.000000 0.000000 -0.000000
vn  1.000000 0.000000 -0.000000
vn  1.000000 0.000000 -0.000000
vn  1.000000 0.000000 -0.000000
vn  1.000000 0.000000 -0.000000
vn  2.887911 0.574441 -0.574443
vn  -1.925274 0.382961 -0.382961
# 115 vertex normals

g Helmet
usemtl Geel
s 1
f 1/1/1 2/17/2 3/18/3
f 1/2/1 3/18/3 4/19/4
f 1/3/1 4/19/4 5/20/5
f 1/4/1 5/20/5 6/21/6
f 1/5/1 6/21/6 7/22/7
f 1/6/1 7/22/7 8/23/8
f 1/7/1 8/23/8 9/24/9
f 1/8/1 9/24/9 10/25/10
f 1/9/1 10/25/10 11/26/11
f 1/10/1 11/26/11 12/27/12
f 1/11/1 12/27/12 13/28/13
f 1/12/1 13/28/13 14/29/14
f 1/13/1 14/29/14 15/30/15
f 1/14/1 15/30/15 16/31/16
f 1/15/1 16/31/16 17/32/17
f 1/16/1 17/32/17 2/33/2
f 19/35/19 3/18/3 2/17/2
f 2/17/2 18/34/18 19/35/19
f 20/36/20 4/19/4 3/18/3
f 3/18/3 19/35/19 20/36/20
f 21/37/21 5/20/5 4/19/4
f 4/19/4 20/36/20 21/37/21
f 22/38/22 6/21/6 5/20/5
f 5/20/5 21/37/21 22/38/22
f 23/39/23 7/22/7 6/21/6
f 6/21/6 22/38/22 23/39/23
f 24/40/24 8/23/8 7/22/7
f 7/22/7 23/39/23 24/40/24
f 25/41/25 9/24/9 8/23/8
f 8/23/8 24/40/24 25/41/25
f 26/42/26 10/25/10 9/24/9
f 9/24/9 25/41/25 26/42/26
f 27/43/27 11/26/11 10/25/10
f 10/25/10 26/42/26 27/43/27
f 28/44/28 12/27/12 11/26/11
f 11/26/11 27/43/27 28/44/28
f 29/45/29 13/28/13 12/27/12
f 12/27/12 28/44/28 29/45/29
f 30/46/30 14/29/14 13/28/13
f 13/28/13 29/45/29 30/46/30
f 31/47/31 15/30/15 14/29/14
f 14/29/14 30/46/30 31/47/31
f 32/48/32 16/31/16 15/30/15
f 15/30/15 31/47/31 32/48/32
f 33/49/33 17/32/17 16/31/16
f 16/31/16 32/48/32 33/49/33
f 18/50/18 2/33/2 17/32/17
f 17/32/17 33/49/33 18/50/18
usemtl Wit
f 35/52/35 19/35/19 18/34/18
f 18/34/18 34/51/34 35/52/35
f 36/53/36 20/36/20 19/35/19
f 19/35/19 35/52/35 36/53/36
f 37/54/37 21/37/21 20/36/20
f 20/36/20 36/53/36 37/54/37
f 38/55/38 22/38/22 21/37/21
f 21/37/21 37/54/37 38/55/38
f 39/56/39 23/39/23 22/38/22
f 22/38/22 38/55/38 39/56/39
f 40/57/40 24/40/24 23/39/23
f 23/39/23 39/56/39 40/57/40
f 41/58/41 25/41/25 24/40/24
f 24/40/24 40/57/40 41/58/41
f 42/59/42 26/42/26 25/41/25
f 25/41/25 41/58/41 42/59/42
f 43/60/43 27/43/27 26/42/26
f 26/42/26 42/59/42 43/60/43
f 44/61/44 28/44/28 27/43/27
f 27/43/27 43/60/43 44/61/44
f 45/62/45 29/45/29 28/44/28
f 28/44/28 44/61/44 45/62/45
f 46/63/46 30/46/30 29/45/29
f 29/45/29 45/62/45 46/63/46
f 47/64/47 31/47/31 30/46/30
f 30/46/30 46/63/46 47/64/47
f 48/65/48 32/48/32 31/47/31
f 31/47/31 47/64/47 48/65/48
f 49/66/49 33/49/33 32/48/32
f 32/48/32 48/65/48 49/66/49
f 34/67/34 18/50/18 33/49/33
f 33/49/33 49/66/49 34/67/34
usemtl Zwart
f 51/69/51 35/52/35 34/51/34
f 34/51/34 50/68/50 51/69/51
f 52/70/52 36/53/36 35/52/35
f 35/52/35 51/69/51 52/70/52
f 53/71/53 37/54/37 36/53/36
f 36/53/36 52/70/52 53/71/53
usemtl Geel
f 55/73/55 39/56/39 38/55/38
f 38/55/38 54/72/54 55/73/55
f 56/74/56 40/57/40 39/56/39
f 39/56/39 55/73/55 56/74/56
f 57/75/57 41/58/41 40/57/40
f 40/57/40 56/74/56 57/75/57
f 58/76/58 42/59/42 41/58/41
f 41/58/41 57/75/57 58/76/58
f 59/77/59 43/60/43 42/59/42
f 42/59/42 58/76/58 59/77/59
f 60/78/60 44/61/44 43/60/43
f 43/60/43 59/77/59 60/78/60
f 61/79/61 45/62/45 44/61/44
f 44/61/44 60/78/60 61/79/61
f 62/80/62 46/63/46 45/62/45
f 45/62/45 61/79/61 62/80/62
usemtl Zwart
f 64/82/64 48/65/48 47/64/47
f 47/64/47 63/81/63 64/82/64
f 65/83/65 49/66/49 48/65/48
f 48/65/48 64/82/64 65/83/65
f 50/84/50 34/67/34 49/66/49
f 49/66/49 65/83/65 50/84/50
usemtl Geel
f 67/86/67 51/69/51 50/68/50
f 50/68/50 66/85/66 67/86/67
f 68/87/68 52/70/52 51/69/51
f 51/69/51 67/86/67 68/87/68
f 69/88/69 53/71/53 52/70/52
f 52/70/52 68/87/68 69/88/69
f 70/89/70 54/72/54 53/71/53
f 53/71/53 69/88/69 70/89/70
f 71/90/71 55/73/55 54/72/54
f 54/72/54 70/89/70 71/90/71
f 72/91/72 56/74/56 55/73/55
f 55/73/55 71/90/71 72/91/72
f 73/92/73 57/75/57 56/74/56
f 56/74/56 72/91/72 73/92/73
f 74/93/74 58/76/58 57/75/57
f 57/75/57 73/92/73 74/93/74
f 75/94/75 59/77/59 58/76/58
f 58/76/58 74/93/74 75/94/75
f 76/95/76 60/78/60 59/77/59
f 59/77/59 75/94/75 76/95/76
f 77/96/77 61/79/61 60/78/60
f 60/78/60 76/95/76 77/96/77
f 78/97/78 62/80/62 61/79/61
f 61/79/61 77/96/77 78/97/78
f 79/98/79 63/81/63 62/80/62
f 62/80/62 78/97/78 79/98/79
f 80/99/80 64/82/64 63/81/63
f 63/81/63 79/98/79 80/99/80
f 81/100/81 65/83/65 64/82/64
f 64/82/64 80/99/80 81/100/81
f 66/101/66 50/84/50 65/83/65
f 65/83/65 81/100/81 66/101/66
f 83/103/83 67/86/67 66/85/66
f 66/85/66 82/102/82 83/103/83
f 84/104/84 68/87/68 67/86/67
f 67/86/67 83/103/83 84/104/84
f 85/105/85 69/88/69 68/87/68
f 68/87/68 84/104/84 85/105/85
f 86/106/86 70/89/70 69/88/69
f 69/88/69 85/105/85 86/106/86
f 87/107/87 71/90/71 70/89/70
f 70/89/70 86/106/86 87/107/87
f 88/108/88 72/91/72 71/90/71
f 71/90/71 87/107/87 88/108/88
f 89/109/89 73/92/73 72/91/72
f 72/91/72 88/108/88 89/109/89
f 90/110/90 74/93/74 73/92/73
f 73/92/73 89/109/89 90/110/90
f 91/111/91 75/94/75 74/93/74
f 74/93/74 90/110/90 91/111/91
f 92/112/92 76/95/76 75/94/75
f 75/94/75 91/111/91 92/112/92
f 93/113/93 77/96/77 76/95/76
f 76/95/76 92/112/92 93/113/93
f 94/114/94 78/97/78 77/96/77
f 77/96/77 93/113/93 94/114/94
f 95/115/95 79/98/79 78/97/78
f 78/97/78 94/114/94 95/115/95
f 96/116/96 80/99/80 79/98/79
f 79/98/79 95/115/95 96/116/96
f 97/117/97 81/100/81 80/99/80
f 80/99/80 96/116/96 97/117/97
f 82/118/82 66/101/66 81/100/81
f 81/100/81 97/117/97 82/118/82
f 99/120/99 83/103/83 82/102/82
f 82/102/82 98/119/98 99/120/99
f 100/121/100 84/104/84 83/103/83
f 83/103/83 99/120/99 100/121/100
f 101/122/101 85/105/85 84/104/84
f 84/104/84 100/121/100 101/122/101
f 102/123/102 86/106/86 85/105/85
f 85/105/85 101/122/101 102/123/102
f 103/124/103 87/107/87 86/106/86
f 86/106/86 102/123/102 103/124/103
f 104/125/104 88/108/88 87/107/87
f 87/107/87 103/124/103 104/125/104
f 105/126/105 89/109/89 88/108/88
f 88/108/88 104/125/104 105/126/105
f 106/127/106 90/110/90 89/109/89
f 89/109/89 105/126/105 106/127/106
f 107/128/107 91/111/91 90/110/90
f 90/110/90 106/127/106 107/128/107
f 108/129/108 92/112/92 91/111/91
f 91/111/91 107/128/107 108/129/108
f 109/130/109 93/113/93 92/112/92
f 92/112/92 108/129/108 109/130/109
f 110/131/110 94/114/94 93/113/93
f 93/113/93 109/130/109 110/131/110
f 111/132/111 95/115/95 94/114/94
f 94/114/94 110/131/110 111/132/111
f 112/133/112 96/116/96 95/115/95
f 95/115/95 111/132/111 112/133/112
f 113/134/113 97/117/97 96/116/96
f 96/116/96 112/133/112 113/134/113
f 98/135/98 82/118/82 97/117/97
f 97/117/97 113/134/113 98/135/98
f 46/63/46 62/80/62 114/136/114
f 62/80/62 63/81/63 114/136/114
usemtl Zwart
f 63/81/63 47/64/47 114/136/114
usemtl Geel
f 47/64/47 46/63/46 114/136/114
usemtl Zwart
f 37/54/37 53/71/53 115/137/115
usemtl Geel
f 53/71/53 54/72/54 115/137/115
f 54/72/54 38/55/38 115/137/115
f 38/55/38 37/54/37 115/137/115
# 212 faces

g
